<svg width="366" height="647" viewBox="0 0 366 647" fill="none" xmlns="http://www.w3.org/2000/svg">
<path d="M178.726 647C142.981 647 111.639 639.205 84.7006 623.614C58.2802 608.024 37.5584 586.66 22.535 559.521C7.51168 531.805 0 500.046 0 464.246C0 428.446 6.21656 397.266 18.6497 370.704C31.6009 343.565 48.9554 321.046 70.7134 303.146C92.4713 285.246 117.079 271.676 144.535 262.438C108.79 235.299 84.1826 211.913 70.7134 192.281C57.2442 172.649 50.5095 150.996 50.5095 127.321C50.5095 88.0567 63.9788 57.1647 90.9172 34.6453C117.856 11.5484 153.86 0 198.93 0C237.265 0 270.161 8.3726 297.618 25.1178C325.592 41.2856 344.501 61.784 354.344 86.6131C352.79 99.3164 348.127 110.287 340.357 119.526C333.104 128.187 323.002 132.518 310.051 132.518C300.208 132.518 289.847 129.342 278.968 122.991C268.607 116.639 256.951 105.379 244 89.2115L197.376 33.7791C175.1 34.3566 156.709 40.1308 142.204 51.1018C128.217 62.0727 121.223 77.0857 121.223 96.1406C121.223 108.266 124.331 119.237 130.548 129.054C136.764 138.87 147.902 150.707 163.962 164.565C180.539 177.846 203.592 196.323 233.121 219.997C266.794 245.981 293.214 270.522 312.382 293.618C331.55 316.715 345.278 340.39 353.567 364.641C361.856 388.893 366 416.32 366 446.924C366 483.879 357.97 517.658 341.911 548.261C326.369 578.287 304.611 602.25 276.637 620.15C248.662 638.05 216.025 647 178.726 647ZM97.1338 463.38C97.1338 511.884 105.682 547.684 122.777 570.78C140.391 593.877 161.372 605.426 185.72 605.426C215.248 605.426 237.524 592.722 252.548 567.316C268.089 541.332 275.86 507.553 275.86 465.979C275.86 429.601 268.348 397.266 253.325 368.972C238.82 340.678 215.766 314.983 184.166 291.886C126.144 322.49 97.1338 379.654 97.1338 463.38Z" fill="black" style="fill:black;fill-opacity:1;"/>
</svg>
